<?xml version="1.0" standalone="no"?>
<!DOCTYPE svg PUBLIC "-//W3C//DTD SVG 20010904//EN"
 "http://www.w3.org/TR/2001/REC-SVG-20010904/DTD/svg10.dtd">
<svg version="1.0" xmlns="http://www.w3.org/2000/svg"
 width="1200.000000pt" height="800.000000pt" viewBox="0 0 1200.000000 800.000000"
 preserveAspectRatio="xMidYMid meet">
<metadata>
Created by potrace 1.16, written by Peter Selinger 2001-2019
</metadata>
<g transform="translate(0.000000,800.000000) scale(0.100000,-0.100000)"
fill="#000000" stroke="none">
<path d="M0 4000 l0 -4000 2000 0 2000 0 0 1975 c0 1743 2 1975 15 1975 8 0
66 33 129 74 l114 74 -5 -138 -6 -138 101 -7 c55 -4 125 -4 154 0 46 6 60 14
107 58 35 34 55 47 58 39 10 -28 70 -98 103 -119 47 -32 123 -53 195 -53 64 0
85 11 85 45 0 43 14 49 66 31 84 -30 189 -32 265 -7 51 18 70 20 92 12 15 -6
27 -15 27 -20 0 -14 -54 -53 -140 -101 -102 -57 -107 -63 -115 -126 -3 -30
-10 -54 -14 -54 -3 0 -15 14 -25 30 -23 40 -60 64 -88 56 -13 -3 -42 -30 -66
-61 -24 -30 -48 -55 -53 -55 -6 0 -42 5 -80 12 -89 14 -142 1 -164 -42 -8 -16
-15 -36 -15 -44 0 -16 -14 -32 -56 -65 -21 -17 -24 -23 -14 -40 13 -25 10 -25
-37 -6 -48 20 -92 19 -158 -6 l-55 -20 25 -43 c25 -42 33 -100 16 -110 -5 -3
-22 20 -37 52 -26 51 -33 57 -63 60 -56 6 -97 -7 -131 -38 -34 -32 -37 -65 -9
-83 12 -7 26 -3 55 17 39 26 78 33 102 17 9 -5 -14 -27 -79 -71 -158 -108
-208 -175 -209 -276 0 -66 39 -145 86 -175 44 -27 143 -36 213 -19 32 7 132
60 275 145 l224 133 49 -35 c144 -104 293 -101 348 7 7 14 15 54 19 90 5 57
11 69 43 102 42 43 52 45 84 19 l24 -20 43 42 42 41 -46 47 -46 47 43 25 c271
155 324 185 327 182 2 -2 1 -63 -3 -135 l-8 -131 -261 -237 c-144 -130 -285
-258 -314 -284 l-53 -47 57 -153 c31 -84 58 -161 61 -170 8 -26 14 -23 58 23
22 22 53 50 68 61 26 18 23 11 -24 -63 -28 -46 -58 -93 -65 -104 -8 -11 -14
-23 -14 -27 0 -12 213 -167 222 -162 5 3 38 44 73 91 36 47 65 82 65 76 0 -5
-15 -55 -34 -110 l-34 -101 151 -61 c83 -34 154 -58 158 -53 4 4 30 104 58
222 81 341 76 333 84 145 4 -88 7 -220 7 -293 l0 -134 28 6 c15 3 72 13 127
21 55 9 110 18 122 21 22 4 23 8 25 152 l3 147 52 -95 c29 -52 54 -99 56 -103
1 -5 53 21 114 58 l112 67 -60 170 c-32 93 -59 174 -59 180 0 11 60 -54 174
-187 43 -49 80 -89 84 -88 4 1 30 95 58 209 l51 208 -196 216 c-108 118 -228
251 -266 295 l-70 80 3 73 c3 52 8 75 18 79 14 5 124 -45 124 -56 0 -4 -8 -17
-17 -31 -16 -23 -16 -24 22 -56 l38 -33 30 25 31 26 18 -21 c16 -20 19 -21 40
-7 13 8 43 16 68 18 44 3 45 2 45 -27 0 -26 -7 -34 -56 -60 -32 -16 -66 -39
-78 -49 -28 -25 -27 -67 2 -94 43 -41 103 -54 282 -61 165 -8 172 -9 231 -40
53 -28 74 -33 175 -41 l116 -8 184 -106 c101 -58 189 -106 195 -106 11 0 199
309 192 315 -2 1 -70 26 -151 54 -81 28 -156 55 -166 60 -10 6 -28 37 -40 69
-26 72 -38 83 -95 89 -44 5 -45 7 -51 47 -18 123 -26 130 -144 135 l-86 3 -38
49 c-55 70 -110 99 -209 110 -45 5 -84 12 -86 14 -3 2 1 19 8 36 16 38 23 30
-173 182 l-127 97 -42 -10 c-60 -13 -60 -14 -56 23 3 29 10 36 83 74 44 23 83
42 86 43 4 0 39 -49 79 -110 40 -60 80 -112 89 -114 9 -3 73 -15 143 -27 l128
-21 50 44 c52 46 51 40 34 131 -6 30 -6 31 12 16 11 -8 58 -47 105 -87 l86
-72 100 0 99 0 97 61 c79 49 97 65 97 85 0 33 10 30 55 -17 63 -64 61 -64 187
-18 62 22 118 46 124 53 6 6 14 41 17 79 l6 67 -39 26 c-31 21 -40 33 -40 55
l0 29 38 -23 c20 -13 72 -47 116 -76 73 -47 83 -51 140 -51 33 0 71 3 83 6 13
4 43 38 73 84 44 67 51 84 45 109 -5 23 -3 31 7 31 7 0 71 -23 143 -50 l129
-49 161 114 c88 62 168 120 179 128 17 13 12 19 -83 100 -56 48 -95 87 -86 87
9 0 86 -12 170 -26 l153 -26 40 44 c116 127 212 245 213 263 0 11 8 105 17
208 10 103 16 189 15 191 -2 1 -110 -12 -240 -30 -131 -18 -365 -50 -520 -70
l-283 -38 -25 24 c-14 13 -25 33 -25 44 1 12 25 86 55 166 30 79 53 145 51
147 -1 1 -109 3 -239 4 l-238 1 -297 -175 c-163 -96 -320 -187 -348 -203 l-51
-28 -87 12 c-47 7 -146 31 -219 53 -164 50 -207 51 -312 8 -65 -25 -100 -33
-185 -38 -149 -10 -175 -30 -200 -159 -14 -71 -42 -119 -82 -141 -40 -23 -71
-3 -123 79 -25 39 -52 73 -59 76 -8 3 -37 -6 -66 -21 l-51 -26 -30 26 c-38 31
-53 31 -104 0 -22 -14 -46 -25 -53 -25 -7 0 -36 16 -64 35 l-51 34 -58 -49
c-31 -28 -70 -53 -86 -56 -42 -8 -86 32 -113 104 -39 103 -65 138 -127 168
-50 25 -68 28 -156 29 l-99 0 5 35 c3 19 17 100 31 179 14 80 24 146 23 147
-1 1 -70 -25 -153 -58 l-150 -59 -62 -113 c-57 -103 -102 -165 -102 -139 0 6
23 81 50 167 28 86 50 165 50 174 0 24 -106 286 -117 289 -4 2 -59 -45 -122
-104 l-113 -108 16 -155 c9 -85 16 -164 15 -175 0 -20 0 -20 -9 1 -4 11 -20
76 -35 145 -15 68 -32 134 -39 146 -9 18 -350 293 -363 293 -2 0 -3 -98 -3
-219 l0 -218 95 -111 c52 -62 95 -115 95 -119 0 -4 -51 43 -112 104 l-113 112
-92 17 -93 18 0 1298 0 1298 -2000 0 -2000 0 0 -4000z m4399 1657 c79 -62 152
-123 162 -137 16 -22 129 -502 129 -548 0 -23 -12 -2 -150 253 -111 207 -170
299 -178 277 -9 -27 303 -613 348 -654 54 -50 48 -72 86 326 14 153 23 294 19
312 -16 90 -31 7 -61 -336 -21 -249 -28 -266 -43 -105 -23 244 -41 420 -47
464 l-7 44 104 98 104 99 18 -43 c65 -147 79 -191 75 -236 -2 -25 -36 -145
-75 -266 -39 -121 -74 -236 -77 -255 l-7 -35 19 24 c11 14 68 111 127 218 59
106 120 204 136 217 28 24 237 111 246 102 4 -4 -17 -137 -38 -244 l-11 -53
-155 -117 c-193 -145 -188 -141 -182 -147 3 -3 52 11 109 30 82 28 120 35 179
35 80 0 201 -18 201 -29 0 -10 -128 -105 -167 -125 -26 -13 -78 -18 -247 -23
-118 -3 -220 -9 -227 -13 -9 -6 -6 -32 10 -106 24 -114 21 -139 -4 -32 -21 87
-53 168 -67 168 -6 0 -8 -12 -5 -27 7 -37 15 -103 10 -80 -2 9 -9 17 -14 17
-5 0 -8 3 -8 8 1 4 1 28 0 54 -1 44 -4 50 -41 73 -22 14 -40 33 -40 43 0 10
-84 119 -186 242 -102 124 -190 235 -195 248 -11 28 -12 372 -1 371 4 0 72
-50 151 -112z m-499 -256 c25 -5 68 -12 95 -15 80 -10 158 -27 186 -41 20 -11
235 -231 373 -384 l31 -33 -41 20 c-22 11 -105 62 -184 112 -168 107 -290 176
-290 163 0 -22 80 -81 280 -205 227 -141 329 -208 318 -208 -22 0 -662 244
-694 265 -23 15 -167 322 -158 336 3 6 13 8 22 5 10 -3 37 -10 62 -15z m4798
-16 c8 -7 -91 -254 -107 -268 -9 -8 -537 -315 -1175 -681 l-1158 -667 -146 83
c-80 46 -145 88 -144 93 1 6 380 241 844 524 464 282 996 607 1183 722 l340
210 180 -6 c99 -4 181 -8 183 -10z m-4380 -512 c137 -33 229 -60 223 -66 -5
-5 -98 -11 -207 -13 -200 -5 -294 -17 -294 -37 0 -11 386 -4 559 9 83 7 83 7
72 -14 -7 -12 -21 -22 -33 -22 -11 0 -133 -25 -271 -56 -156 -34 -260 -53
-276 -49 -14 4 -81 36 -149 72 l-123 65 123 84 c68 45 128 83 133 84 6 0 115
-25 243 -57z m325 -348 l-65 -195 -125 -40 c-69 -22 -130 -40 -135 -40 -11 0
0 172 13 207 7 20 289 240 289 226 0 -3 -41 -61 -91 -129 -95 -130 -147 -214
-132 -214 19 0 77 68 188 221 64 87 118 159 120 159 2 0 -26 -88 -62 -195z
m1762 -927 c220 -126 407 -236 415 -245 23 -24 -19 0 -369 202 -337 194 -632
364 -1256 722 -214 123 -397 231 -405 239 -13 14 337 -185 1615 -918z m-500
347 c954 -540 964 -545 971 -556 9 -15 -9 -10 -61 19 -216 121 -1702 977
-1710 985 -5 6 10 -1 35 -15 25 -14 369 -209 765 -433z m89 -151 c72 -42 135
-79 139 -83 5 -5 -115 -79 -265 -166 l-272 -158 -134 6 c-74 4 -136 8 -138 10
-2 2 -5 36 -6 77 l-3 74 80 50 c226 140 439 266 453 266 8 0 74 -34 146 -76z"/>
<path d="M5083 5198 c-163 -187 -306 -358 -301 -363 7 -8 422 44 469 59 l44
13 -30 8 c-19 6 -94 1 -208 -14 -99 -12 -181 -21 -183 -19 -2 2 68 88 155 190
147 172 171 205 171 229 0 23 -25 1 -117 -103z"/>
<path d="M5695 6074 c-266 -19 -321 -40 -344 -129 -17 -68 -14 -95 9 -95 15 0
20 7 20 25 0 14 10 35 21 46 19 19 29 21 78 15 73 -9 133 -39 190 -95 l46 -46
-113 -5 c-122 -5 -132 -10 -132 -64 l0 -29 24 22 c21 20 31 22 62 16 92 -17
184 -88 225 -173 40 -81 26 -247 -35 -419 -14 -39 -13 -42 5 -55 19 -12 19
-16 4 -71 -8 -32 -15 -62 -15 -67 0 -5 33 9 74 31 l75 40 38 -19 c21 -11 55
-27 75 -35 l37 -15 33 43 c18 25 35 45 39 45 3 0 31 -23 63 -51 l57 -52 32 30
c18 16 45 39 61 51 l29 22 36 -27 c20 -15 54 -42 76 -62 l39 -35 7 25 c4 13 7
50 8 82 1 31 4 57 9 57 33 1 32 18 -28 355 -33 187 -70 370 -81 408 -33 110
-109 179 -234 211 -55 14 -104 20 -260 30 -27 2 -131 -3 -230 -10z m122 -105
c6 -6 53 -16 105 -21 83 -8 96 -12 122 -38 17 -16 28 -32 25 -34 -2 -3 -22 -1
-44 4 -22 5 -65 10 -95 10 -95 0 -129 10 -144 39 -21 41 1 70 31 40z m182
-135 c12 -15 21 -34 21 -44 0 -32 -39 -70 -73 -70 -38 0 -77 34 -77 69 0 65
89 96 129 45z"/>
</g>
</svg>
